{"title":"The Wolverine 2013 CAM NEWSOURCE x264 AAC-KiSSMYACE ","uid":8762121,"size":530913525,"categoryP":"video","categoryS":"movies","magnet":"?xt=urn:btih:b89b2a5ef5b48b48beb027a31db0db75a8457a88&amp;dn=The+Wolverine+2013+CAM+NEWSOURCE+x264+AAC-KiSSMYACE+&amp;tr=udp%3A%2F%2Ftracker.openbittorrent.com%3A80&amp;tr=udp%3A%2F%2Fopen.demonii.com%3A1337&amp;tr=udp%3A%2F%2Ftracker.coppersurfer.tk%3A6969&amp;tr=udp%3A%2F%2Fexodus.desync.com%3A6969","seeders":1,"leechers":0,"uploader":"srkfan","files":4,"time":1375264087,"description":" &lt;a href=&quot;http://www.ultraimg.com/images/ecF2X.jpg&quot; rel=&quot;nofollow&quot; target=&quot;_NEW&quot;&gt;http://www.ultraimg.com/images/ecF2X.jpg&lt;/a&gt;\n\nSources: Video - PsO ... Audio - A Friend .. thanks for sync bro \n\nNotes: Cropped the shadow from the left side, resized, tweaked gamma, levels, sharpen.\n\nI used the original source cam audio thats floating around, synced and muxed up.\n &lt;a href=&quot;\nhttp://www.imdb.com/title/tt1430132/&quot; rel=&quot;nofollow&quot; target=&quot;_NEW&quot;&gt;\nhttp://www.imdb.com/title/tt1430132/&lt;/a&gt;\n\nSummoned to Japan by an old acquaintance, Wolverine becomes embroiled in a conflict that forces him to confront his own demons.\n\nGeneral\nComplete name                            : The Wolverine 2013 CAM NEWSOURCE x264 AAC-KiSSMYACE.mp4\nFormat                                   : MPEG-4\nFormat profile                           : Base Media\nCodec ID                                 : isom\nFile size                                : 498 MiB\nDuration                                 : 1h 49mn\nOverall bit rate mode                    : Variable\nOverall bit rate                         : 636 Kbps\nEncoded date                             : UTC 2013-07-31 06:48:42\nTagged date                              : UTC 2013-07-31 06:48:42\n\nVideo\nID                                       : 1\nFormat                                   : AVC\nFormat/Info                              : Advanced Video Codec\nFormat profile                           : &lt;a class=&quot;__cf_email__&quot; href=&quot;/cdn-cgi/l/email-protection&quot; data-cfemail=&quot;074f6e606f474b332936&quot;&gt;[email&amp;#160;protected]&lt;/a&gt;&lt;script cf-hash='f9e31' type=&quot;text/javascript&quot;&gt;\n/* &lt;![CDATA[ */!function(){try{var t=&quot;currentScript&quot;in document?document.currentScript:function(){for(var t=document.getElementsByTagName(&quot;script&quot;),e=t.length;e--;)if(t[e].getAttribute(&quot;cf-hash&quot;))return t[e]}();if(t&amp;&amp;t.previousSibling){var e,r,n,i,c=t.previousSibling,a=c.getAttribute(&quot;data-cfemail&quot;);if(a){for(e=&quot;&quot;,r=parseInt(a.substr(0,2),16),n=2;a.length-n;n+=2)i=parseInt(a.substr(n,2),16)^r,e+=String.fromCharCode(i);e=document.createTextNode(e),c.parentNode.replaceChild(e,c)}}}catch(u){}}();/* ]]&gt; */&lt;/script&gt;\nFormat settings, CABAC                   : Yes\nFormat settings, ReFrames                : 3 frames\nCodec ID                                 : avc1\nCodec ID/Info                            : Advanced Video Coding\nDuration                                 : 1h 49mn\nBit rate mode                            : Variable\nBit rate                                 : 538 Kbps\nMaximum bit rate                         : 40.0 Mbps\nWidth                                    : 720 pixels\nHeight                                   : 288 pixels\nDisplay aspect ratio                     : 2.500\nFrame rate mode                          : Constant\nFrame rate                               : 25.000 fps\nColor space                              : YUV\nChroma subsampling                       : 4:2:0\nBit depth                                : 8 bits\nScan type                                : Progressive\nBits/(Pixel*Frame)                       : 0.104\nStream size                              : 422 MiB (85%)\nWriting library                          : x264 core 135 r2345 f0c1c53\n\nAudio\nID                                       : 2\nFormat                                   : AAC\nFormat/Info                              : Advanced Audio Codec\nFormat profile                           : LC\nCodec ID                                 : 40\nDuration                                 : 1h 49mn\nBit rate mode                            : Variable\nBit rate                                 : 93.7 Kbps\nMaximum bit rate                         : 105 Kbps\nChannel(s)                               : 2 channels\nChannel positions                        : Front: L R\nSampling rate                            : 44.1 KHz\nCompression mode                         : Lossy\nStream size                              : 73.5 MiB (15%)\nLanguage                                 : English\nEncoded date                             : UTC 2013-07-31 06:45:27\nTagged date                              : UTC 2013-07-31 06:49:17\n &lt;a href=&quot;\nhttp://img829.imageshack.us/img829/5337/v7ot.png&quot; rel=&quot;nofollow&quot; target=&quot;_NEW&quot;&gt;\nhttp://img829.imageshack.us/img829/5337/v7ot.png&lt;/a&gt; &lt;a href=&quot;\nhttp://img24.imageshack.us/img24/6179/e6lq.png&quot; rel=&quot;nofollow&quot; target=&quot;_NEW&quot;&gt;\nhttp://img24.imageshack.us/img24/6179/e6lq.png&lt;/a&gt; &lt;a href=&quot;\nhttp://img197.imageshack.us/img197/5232/tao3.png&quot; rel=&quot;nofollow&quot; target=&quot;_NEW&quot;&gt;\nhttp://img197.imageshack.us/img197/5232/tao3.png&lt;/a&gt; &lt;a href=&quot;\nhttp://img694.imageshack.us/img694/5721/fuw.png&quot; rel=&quot;nofollow&quot; target=&quot;_NEW&quot;&gt;\nhttp://img694.imageshack.us/img694/5721/fuw.png&lt;/a&gt; &lt;a href=&quot;\nhttp://img42.imageshack.us/img42/1081/od3p.png&quot; rel=&quot;nofollow&quot; target=&quot;_NEW&quot;&gt;\nhttp://img42.imageshack.us/img42/1081/od3p.png&lt;/a&gt; &lt;a href=&quot;\nhttp://img706.imageshack.us/img706/8453/f9i5.png&quot; rel=&quot;nofollow&quot; target=&quot;_NEW&quot;&gt;\nhttp://img706.imageshack.us/img706/8453/f9i5.png&lt;/a&gt; &lt;a href=&quot;\nhttp://img21.imageshack.us/img21/2839/nq6.png&quot; rel=&quot;nofollow&quot; target=&quot;_NEW&quot;&gt;\nhttp://img21.imageshack.us/img21/2839/nq6.png&lt;/a&gt; &lt;a href=&quot;\nhttp://img32.imageshack.us/img32/1151/epuj.png&quot; rel=&quot;nofollow&quot; target=&quot;_NEW&quot;&gt;\nhttp://img32.imageshack.us/img32/1151/epuj.png&lt;/a&gt; &lt;a href=&quot;\nhttp://img17.imageshack.us/img17/6517/ortz.png&quot; rel=&quot;nofollow&quot; target=&quot;_NEW&quot;&gt;\nhttp://img17.imageshack.us/img17/6517/ortz.png&lt;/a&gt; &lt;a href=&quot;\nhttp://img835.imageshack.us/img835/6372/slw1.png&quot; rel=&quot;nofollow&quot; target=&quot;_NEW&quot;&gt;\nhttp://img835.imageshack.us/img835/6372/slw1.png&lt;/a&gt;","torrent":{"xt":"urn:btih:b89b2a5ef5b48b48beb027a31db0db75a8457a88","amp;dn":"The+Wolverine+2013+CAM+NEWSOURCE+x264+AAC-KiSSMYACE+","amp;tr":["udp%3A%2F%2Ftracker.openbittorrent.com%3A80","udp%3A%2F%2Fopen.demonii.com%3A1337","udp%3A%2F%2Ftracker.coppersurfer.tk%3A6969","udp%3A%2F%2Fexodus.desync.com%3A6969"],"infoHash":"b89b2a5ef5b48b48beb027a31db0db75a8457a88","infoHashBuffer":{"type":"Buffer","data":[184,155,42,94,245,180,139,72,190,176,39,163,29,176,219,117,168,69,122,136]},"announce":[],"urlList":[]}}